# xmcd CD database file
#
# Track frame offsets:
#	150
#	39087
#	72211
#	107654
#	137901
#	173695
#	195413
#
# Disc length: 2818 seconds
#
# Revision: 0
# Processed by: cddbd v1.5.2PL0 Copyright (c) Steve Scherf et al.
# Submitted via: CDex 1.70beta2
#
DISCID=540b0007
DTITLE=RAHUL SHARMA - ANTARIKSH - DEEP SPACE - INSTRUMENTAL ( SANTOOR) [CDNF 197278]
DYEAR=2007
DGENRE=New Age
TTITLE0=RAHUL SHARMA - THE MILKY WAY
TTITLE1=RAHUL SHARMA - DHEEM TA NUM - THE BIG BANG
TTITLE2=RAHUL SHARMA - GLIESE 581C - [EARTH'S SISTER PLANET]
TTITLE3=RAHUL SHARMA - ALIENS - SPACE TREK
TTITLE4=RAHUL SHARMA - CHANDRAYAN 1 - SPACECRAFT TO THE MOON
TTITLE5=RAHUL SHARMA - THE BIG BANG - DHEEM TA HUM - REMIX
TTITLE6=RAHUL SHARMA - CHANDRAYAN - REALTONE MIX
EXTD=YEAR: 2007
EXTT0=
EXTT1=
EXTT2=
EXTT3=
EXTT4=
EXTT5=
EXTT6=
PLAYORDER=
